<?xml version="1.0" encoding="UTF-8" standalone="no"?>
<!DOCTYPE svg PUBLIC "-//W3C//DTD SVG 1.1//EN"
 "http://www.w3.org/Graphics/SVG/1.1/DTD/svg11.dtd">
<!-- Generated by graphviz version 2.40.1 (20161225.0304)
 -->
<!-- Title: G Pages: 1 -->
<svg width="1142pt" height="2508pt"
 viewBox="0.00 0.00 1141.53 2508.00" xmlns="http://www.w3.org/2000/svg" xmlns:xlink="http://www.w3.org/1999/xlink">
<g id="graph0" class="graph" transform="scale(1 1) rotate(0) translate(4 2504)">
<title>G</title>
<polygon fill="#ffffff" stroke="transparent" points="-4,4 -4,-2504 1137.5329,-2504 1137.5329,4 -4,4"/>
<g id="clust1" class="cluster">
<title>cluster_Global</title>
<path fill="none" stroke="#c0c0c0" d="M497.2059,-746C497.2059,-746 1113.5329,-746 1113.5329,-746 1119.5329,-746 1125.5329,-752 1125.5329,-758 1125.5329,-758 1125.5329,-2480 1125.5329,-2480 1125.5329,-2486 1119.5329,-2492 1113.5329,-2492 1113.5329,-2492 497.2059,-2492 497.2059,-2492 491.2059,-2492 485.2059,-2486 485.2059,-2480 485.2059,-2480 485.2059,-758 485.2059,-758 485.2059,-752 491.2059,-746 497.2059,-746"/>
<text text-anchor="middle" x="805.3694" y="-2479.2" font-family="Times,serif" font-size="11.00" fill="#c0c0c0">Global</text>
</g>
<g id="clust2" class="cluster">
<title>cluster_\App</title>
<path fill="none" stroke="#c0c0c0" d="M505.2059,-754C505.2059,-754 1105.5329,-754 1105.5329,-754 1111.5329,-754 1117.5329,-760 1117.5329,-766 1117.5329,-766 1117.5329,-2452 1117.5329,-2452 1117.5329,-2458 1111.5329,-2464 1105.5329,-2464 1105.5329,-2464 505.2059,-2464 505.2059,-2464 499.2059,-2464 493.2059,-2458 493.2059,-2452 493.2059,-2452 493.2059,-766 493.2059,-766 493.2059,-760 499.2059,-754 505.2059,-754"/>
<text text-anchor="middle" x="805.3694" y="-2451.2" font-family="Times,serif" font-size="11.00" fill="#c0c0c0">App</text>
</g>
<g id="clust3" class="cluster">
<title>cluster_\App\Http</title>
<path fill="none" stroke="#c0c0c0" d="M523.2059,-1526C523.2059,-1526 1097.5329,-1526 1097.5329,-1526 1103.5329,-1526 1109.5329,-1532 1109.5329,-1538 1109.5329,-1538 1109.5329,-2424 1109.5329,-2424 1109.5329,-2430 1103.5329,-2436 1097.5329,-2436 1097.5329,-2436 523.2059,-2436 523.2059,-2436 517.2059,-2436 511.2059,-2430 511.2059,-2424 511.2059,-2424 511.2059,-1538 511.2059,-1538 511.2059,-1532 517.2059,-1526 523.2059,-1526"/>
<text text-anchor="middle" x="810.3694" y="-2423.2" font-family="Times,serif" font-size="11.00" fill="#c0c0c0">Http</text>
</g>
<g id="clust4" class="cluster">
<title>cluster_\App\Http\Middleware</title>
<path fill="none" stroke="#c0c0c0" d="M911.0329,-1580C911.0329,-1580 1075.0329,-1580 1075.0329,-1580 1081.0329,-1580 1087.0329,-1586 1087.0329,-1592 1087.0329,-1592 1087.0329,-1964 1087.0329,-1964 1087.0329,-1970 1081.0329,-1976 1075.0329,-1976 1075.0329,-1976 911.0329,-1976 911.0329,-1976 905.0329,-1976 899.0329,-1970 899.0329,-1964 899.0329,-1964 899.0329,-1592 899.0329,-1592 899.0329,-1586 905.0329,-1580 911.0329,-1580"/>
<text text-anchor="middle" x="993.0329" y="-1963.2" font-family="Times,serif" font-size="11.00" fill="#c0c0c0">Middleware</text>
</g>
<g id="clust5" class="cluster">
<title>cluster_\App\Http\Controllers</title>
<path fill="none" stroke="#c0c0c0" d="M531.2059,-1984C531.2059,-1984 1089.5329,-1984 1089.5329,-1984 1095.5329,-1984 1101.5329,-1990 1101.5329,-1996 1101.5329,-1996 1101.5329,-2396 1101.5329,-2396 1101.5329,-2402 1095.5329,-2408 1089.5329,-2408 1089.5329,-2408 531.2059,-2408 531.2059,-2408 525.2059,-2408 519.2059,-2402 519.2059,-2396 519.2059,-2396 519.2059,-1996 519.2059,-1996 519.2059,-1990 525.2059,-1984 531.2059,-1984"/>
<text text-anchor="middle" x="810.3694" y="-2395.2" font-family="Times,serif" font-size="11.00" fill="#c0c0c0">Controllers</text>
</g>
<g id="clust6" class="cluster">
<title>cluster_\App\Http\Controllers\Auth</title>
<path fill="none" stroke="#c0c0c0" d="M904.5329,-2038C904.5329,-2038 1081.5329,-2038 1081.5329,-2038 1087.5329,-2038 1093.5329,-2044 1093.5329,-2050 1093.5329,-2050 1093.5329,-2368 1093.5329,-2368 1093.5329,-2374 1087.5329,-2380 1081.5329,-2380 1081.5329,-2380 904.5329,-2380 904.5329,-2380 898.5329,-2380 892.5329,-2374 892.5329,-2368 892.5329,-2368 892.5329,-2050 892.5329,-2050 892.5329,-2044 898.5329,-2038 904.5329,-2038"/>
<text text-anchor="middle" x="993.0329" y="-2367.2" font-family="Times,serif" font-size="11.00" fill="#c0c0c0">Auth</text>
</g>
<g id="clust7" class="cluster">
<title>cluster_\App\Console</title>
<path fill="none" stroke="#c0c0c0" d="M968.5329,-1284C968.5329,-1284 1017.5329,-1284 1017.5329,-1284 1023.5329,-1284 1029.5329,-1290 1029.5329,-1296 1029.5329,-1296 1029.5329,-1344 1029.5329,-1344 1029.5329,-1350 1023.5329,-1356 1017.5329,-1356 1017.5329,-1356 968.5329,-1356 968.5329,-1356 962.5329,-1356 956.5329,-1350 956.5329,-1344 956.5329,-1344 956.5329,-1296 956.5329,-1296 956.5329,-1290 962.5329,-1284 968.5329,-1284"/>
<text text-anchor="middle" x="993.0329" y="-1343.2" font-family="Times,serif" font-size="11.00" fill="#c0c0c0">Console</text>
</g>
<g id="clust8" class="cluster">
<title>cluster_\App\Providers</title>
<path fill="none" stroke="#c0c0c0" d="M907.5329,-1042C907.5329,-1042 1078.5329,-1042 1078.5329,-1042 1084.5329,-1042 1090.5329,-1048 1090.5329,-1054 1090.5329,-1054 1090.5329,-1264 1090.5329,-1264 1090.5329,-1270 1084.5329,-1276 1078.5329,-1276 1078.5329,-1276 907.5329,-1276 907.5329,-1276 901.5329,-1276 895.5329,-1270 895.5329,-1264 895.5329,-1264 895.5329,-1054 895.5329,-1054 895.5329,-1048 901.5329,-1042 907.5329,-1042"/>
<text text-anchor="middle" x="993.0329" y="-1263.2" font-family="Times,serif" font-size="11.00" fill="#c0c0c0">Providers</text>
</g>
<g id="clust9" class="cluster">
<title>cluster_\App\Exceptions</title>
<path fill="none" stroke="#c0c0c0" d="M513.2059,-1364C513.2059,-1364 1089.5329,-1364 1089.5329,-1364 1095.5329,-1364 1101.5329,-1370 1101.5329,-1376 1101.5329,-1376 1101.5329,-1506 1101.5329,-1506 1101.5329,-1512 1095.5329,-1518 1089.5329,-1518 1089.5329,-1518 513.2059,-1518 513.2059,-1518 507.2059,-1518 501.2059,-1512 501.2059,-1506 501.2059,-1506 501.2059,-1376 501.2059,-1376 501.2059,-1370 507.2059,-1364 513.2059,-1364"/>
<text text-anchor="middle" x="801.3694" y="-1505.2" font-family="Times,serif" font-size="11.00" fill="#c0c0c0">Exceptions</text>
</g>
<g id="clust10" class="cluster">
<title>cluster_\App\Exceptions\Api</title>
<path fill="none" stroke="#c0c0c0" d="M521.2059,-1418C521.2059,-1418 1081.5329,-1418 1081.5329,-1418 1087.5329,-1418 1093.5329,-1424 1093.5329,-1430 1093.5329,-1430 1093.5329,-1478 1093.5329,-1478 1093.5329,-1484 1087.5329,-1490 1081.5329,-1490 1081.5329,-1490 521.2059,-1490 521.2059,-1490 515.2059,-1490 509.2059,-1484 509.2059,-1478 509.2059,-1478 509.2059,-1430 509.2059,-1430 509.2059,-1424 515.2059,-1418 521.2059,-1418"/>
<text text-anchor="middle" x="801.3694" y="-1477.2" font-family="Times,serif" font-size="11.00" fill="#c0c0c0">Api</text>
</g>
<g id="clust11" class="cluster">
<title>cluster_\App\Models</title>
<path fill="none" stroke="#c0c0c0" d="M961.5329,-862C961.5329,-862 1024.5329,-862 1024.5329,-862 1030.5329,-862 1036.5329,-868 1036.5329,-874 1036.5329,-874 1036.5329,-922 1036.5329,-922 1036.5329,-928 1030.5329,-934 1024.5329,-934 1024.5329,-934 961.5329,-934 961.5329,-934 955.5329,-934 949.5329,-928 949.5329,-922 949.5329,-922 949.5329,-874 949.5329,-874 949.5329,-868 955.5329,-862 961.5329,-862"/>
<text text-anchor="middle" x="993.0329" y="-921.2" font-family="Times,serif" font-size="11.00" fill="#c0c0c0">Models</text>
</g>
<!-- \\App\\Http\\Middleware\\RedirectIfAuthenticated -->
<g id="node1" class="node">
<title>\\App\\Http\\Middleware\\RedirectIfAuthenticated</title>
<polygon fill="none" stroke="#000000" points="1079.0329,-1948 907.0329,-1948 907.0329,-1912 1079.0329,-1912 1079.0329,-1948"/>
<text text-anchor="middle" x="993.0329" y="-1927.2" font-family="Courier,monospace" font-size="11.00" fill="#000000">RedirectIfAuthenticated</text>
</g>
<!-- \\App\\Http\\Middleware\\EncryptCookies -->
<g id="node2" class="node">
<title>\\App\\Http\\Middleware\\EncryptCookies</title>
<polygon fill="none" stroke="#000000" points="1048.5329,-1894 937.5329,-1894 937.5329,-1858 1048.5329,-1858 1048.5329,-1894"/>
<text text-anchor="middle" x="993.0329" y="-1873.2" font-family="Courier,monospace" font-size="11.00" fill="#000000">EncryptCookies</text>
</g>
<!-- \\Illuminate\\Cookie\\Middleware\\EncryptCookies -->
<g id="node31" class="node">
<title>\\Illuminate\\Cookie\\Middleware\\EncryptCookies</title>
<ellipse fill="none" stroke="#000000" cx="569.2059" cy="-720" rx="181.9677" ry="18"/>
<text text-anchor="middle" x="569.2059" y="-716.3" font-family="Times,serif" font-size="14.00" fill="#c0c0c0">\Illuminate\Cookie\Middleware\EncryptCookies</text>
</g>
<!-- \\App\\Http\\Middleware\\EncryptCookies&#45;&gt;\\Illuminate\\Cookie\\Middleware\\EncryptCookies -->
<g id="edge2" class="edge">
<title>\\App\\Http\\Middleware\\EncryptCookies&#45;&gt;\\Illuminate\\Cookie\\Middleware\\EncryptCookies</title>
<path fill="none" stroke="#000000" d="M937.3195,-1872.6086C920.7243,-1868.8453 903.9428,-1861.8215 892.5329,-1849 827.5784,-1776.0094 852.8803,-1508.6251 828.5329,-1414 759.6486,-1146.2848 623.6496,-838.9427 581.7752,-747.1967"/>
<polygon fill="none" stroke="#000000" points="584.927,-745.6729 577.5805,-738.0388 578.5628,-748.588 584.927,-745.6729"/>
</g>
<!-- \\App\\Http\\Middleware\\TrimStrings -->
<g id="node3" class="node">
<title>\\App\\Http\\Middleware\\TrimStrings</title>
<polygon fill="none" stroke="#000000" points="1038.5329,-1840 947.5329,-1840 947.5329,-1804 1038.5329,-1804 1038.5329,-1840"/>
<text text-anchor="middle" x="993.0329" y="-1819.2" font-family="Courier,monospace" font-size="11.00" fill="#000000">TrimStrings</text>
</g>
<!-- \\Illuminate\\Foundation\\Http\\Middleware\\TrimStrings -->
<g id="node32" class="node">
<title>\\Illuminate\\Foundation\\Http\\Middleware\\TrimStrings</title>
<ellipse fill="none" stroke="#000000" cx="569.2059" cy="-666" rx="200.6645" ry="18"/>
<text text-anchor="middle" x="569.2059" y="-662.3" font-family="Times,serif" font-size="14.00" fill="#c0c0c0">\Illuminate\Foundation\Http\Middleware\TrimStrings</text>
</g>
<!-- \\App\\Http\\Middleware\\TrimStrings&#45;&gt;\\Illuminate\\Foundation\\Http\\Middleware\\TrimStrings -->
<g id="edge3" class="edge">
<title>\\App\\Http\\Middleware\\TrimStrings&#45;&gt;\\Illuminate\\Foundation\\Http\\Middleware\\TrimStrings</title>
<path fill="none" stroke="#000000" d="M947.3485,-1821.1531C927.449,-1818.2603 905.7053,-1811.1838 892.5329,-1795 737.6844,-1604.7508 997.9761,-870.3748 828.5329,-693 786.7956,-649.309 718.0768,-643.8404 661.862,-648.6128"/>
<polygon fill="none" stroke="#000000" points="661.4972,-645.1317 651.8801,-649.5772 662.1704,-652.0993 661.4972,-645.1317"/>
</g>
<!-- \\App\\Http\\Middleware\\CheckForMaintenanceMode -->
<g id="node4" class="node">
<title>\\App\\Http\\Middleware\\CheckForMaintenanceMode</title>
<polygon fill="none" stroke="#000000" points="1079.0329,-1786 907.0329,-1786 907.0329,-1750 1079.0329,-1750 1079.0329,-1786"/>
<text text-anchor="middle" x="993.0329" y="-1765.2" font-family="Courier,monospace" font-size="11.00" fill="#000000">CheckForMaintenanceMode</text>
</g>
<!-- \\Illuminate\\Foundation\\Http\\Middleware\\CheckForMaintenanceMode -->
<g id="node33" class="node">
<title>\\Illuminate\\Foundation\\Http\\Middleware\\CheckForMaintenanceMode</title>
<ellipse fill="none" stroke="#000000" cx="569.2059" cy="-612" rx="259.1541" ry="18"/>
<text text-anchor="middle" x="569.2059" y="-608.3" font-family="Times,serif" font-size="14.00" fill="#c0c0c0">\Illuminate\Foundation\Http\Middleware\CheckForMaintenanceMode</text>
</g>
<!-- \\App\\Http\\Middleware\\CheckForMaintenanceMode&#45;&gt;\\Illuminate\\Foundation\\Http\\Middleware\\CheckForMaintenanceMode -->
<g id="edge4" class="edge">
<title>\\App\\Http\\Middleware\\CheckForMaintenanceMode&#45;&gt;\\Illuminate\\Foundation\\Http\\Middleware\\CheckForMaintenanceMode</title>
<path fill="none" stroke="#000000" d="M907.0327,-1753.6277C901.577,-1750.2038 896.6386,-1746.0443 892.5329,-1741 737.6844,-1550.7508 997.9761,-816.3748 828.5329,-639 788.133,-596.709 722.453,-590.2302 667.3032,-594.1865"/>
<polygon fill="none" stroke="#000000" points="666.8085,-590.7157 657.1365,-595.0404 667.3944,-597.6911 666.8085,-590.7157"/>
</g>
<!-- \\App\\Http\\Middleware\\Authenticate -->
<g id="node5" class="node">
<title>\\App\\Http\\Middleware\\Authenticate</title>
<polygon fill="none" stroke="#000000" points="1042.0329,-1732 944.0329,-1732 944.0329,-1696 1042.0329,-1696 1042.0329,-1732"/>
<text text-anchor="middle" x="993.0329" y="-1711.2" font-family="Courier,monospace" font-size="11.00" fill="#000000">Authenticate</text>
</g>
<!-- \\Illuminate\\Auth\\Middleware\\Authenticate -->
<g id="node34" class="node">
<title>\\Illuminate\\Auth\\Middleware\\Authenticate</title>
<ellipse fill="none" stroke="#000000" cx="569.2059" cy="-558" rx="162.4712" ry="18"/>
<text text-anchor="middle" x="569.2059" y="-554.3" font-family="Times,serif" font-size="14.00" fill="#c0c0c0">\Illuminate\Auth\Middleware\Authenticate</text>
</g>
<!-- \\App\\Http\\Middleware\\Authenticate&#45;&gt;\\Illuminate\\Auth\\Middleware\\Authenticate -->
<g id="edge5" class="edge">
<title>\\App\\Http\\Middleware\\Authenticate&#45;&gt;\\Illuminate\\Auth\\Middleware\\Authenticate</title>
<path fill="none" stroke="#000000" d="M943.9732,-1712.624C925.0288,-1709.435 904.964,-1702.2731 892.5329,-1687 737.6844,-1496.7508 997.9761,-762.3748 828.5329,-585 785.542,-539.9968 713.9244,-535.5464 656.8316,-541.0698"/>
<polygon fill="none" stroke="#000000" points="656.2791,-537.6091 646.7143,-542.166 657.0331,-544.5684 656.2791,-537.6091"/>
</g>
<!-- \\App\\Http\\Middleware\\VerifyCsrfToken -->
<g id="node6" class="node">
<title>\\App\\Http\\Middleware\\VerifyCsrfToken</title>
<polygon fill="none" stroke="#000000" points="1052.0329,-1678 934.0329,-1678 934.0329,-1642 1052.0329,-1642 1052.0329,-1678"/>
<text text-anchor="middle" x="993.0329" y="-1657.2" font-family="Courier,monospace" font-size="11.00" fill="#000000">VerifyCsrfToken</text>
</g>
<!-- \\Illuminate\\Foundation\\Http\\Middleware\\VerifyCsrfToken -->
<g id="node35" class="node">
<title>\\Illuminate\\Foundation\\Http\\Middleware\\VerifyCsrfToken</title>
<ellipse fill="none" stroke="#000000" cx="569.2059" cy="-504" rx="218.2613" ry="18"/>
<text text-anchor="middle" x="569.2059" y="-500.3" font-family="Times,serif" font-size="14.00" fill="#c0c0c0">\Illuminate\Foundation\Http\Middleware\VerifyCsrfToken</text>
</g>
<!-- \\App\\Http\\Middleware\\VerifyCsrfToken&#45;&gt;\\Illuminate\\Foundation\\Http\\Middleware\\VerifyCsrfToken -->
<g id="edge6" class="edge">
<title>\\App\\Http\\Middleware\\VerifyCsrfToken&#45;&gt;\\Illuminate\\Foundation\\Http\\Middleware\\VerifyCsrfToken</title>
<path fill="none" stroke="#000000" d="M934.0107,-1656.5723C918.2657,-1652.6917 902.7971,-1645.6108 892.5329,-1633 737.6844,-1442.7508 997.9761,-708.3748 828.5329,-531 787.3235,-487.8617 719.8109,-481.9849 664.0011,-486.4367"/>
<polygon fill="none" stroke="#000000" points="663.3629,-482.9805 653.7254,-487.3815 664.0039,-489.9511 663.3629,-482.9805"/>
</g>
<!-- \\App\\Http\\Middleware\\TrustProxies -->
<g id="node7" class="node">
<title>\\App\\Http\\Middleware\\TrustProxies</title>
<polygon fill="none" stroke="#000000" points="1042.0329,-1624 944.0329,-1624 944.0329,-1588 1042.0329,-1588 1042.0329,-1624"/>
<text text-anchor="middle" x="993.0329" y="-1603.2" font-family="Courier,monospace" font-size="11.00" fill="#000000">TrustProxies</text>
</g>
<!-- \\Fideloper\\Proxy\\TrustProxies -->
<g id="node36" class="node">
<title>\\Fideloper\\Proxy\\TrustProxies</title>
<ellipse fill="none" stroke="#000000" cx="569.2059" cy="-450" rx="117.7793" ry="18"/>
<text text-anchor="middle" x="569.2059" y="-446.3" font-family="Times,serif" font-size="14.00" fill="#c0c0c0">\Fideloper\Proxy\TrustProxies</text>
</g>
<!-- \\App\\Http\\Middleware\\TrustProxies&#45;&gt;\\Fideloper\\Proxy\\TrustProxies -->
<g id="edge7" class="edge">
<title>\\App\\Http\\Middleware\\TrustProxies&#45;&gt;\\Fideloper\\Proxy\\TrustProxies</title>
<path fill="none" stroke="#000000" d="M943.9183,-1607.186C925.0832,-1604.9378 905.1137,-1598.7404 892.5329,-1584 732.5653,-1396.5736 998.7191,-655.1991 828.5329,-477 783.2424,-429.5771 706.1651,-427.1806 647.7806,-434.0366"/>
<polygon fill="none" stroke="#000000" points="647.318,-430.5672 637.8453,-435.3124 648.2096,-437.5101 647.318,-430.5672"/>
</g>
<!-- \\App\\Http\\Controllers\\Auth\\VerificationController -->
<g id="node8" class="node">
<title>\\App\\Http\\Controllers\\Auth\\VerificationController</title>
<polygon fill="none" stroke="#000000" points="1075.5329,-2352 910.5329,-2352 910.5329,-2316 1075.5329,-2316 1075.5329,-2352"/>
<text text-anchor="middle" x="993.0329" y="-2331.2" font-family="Courier,monospace" font-size="11.00" fill="#000000">VerificationController</text>
</g>
<!-- \\App\\Http\\Controllers\\Controller -->
<g id="node14" class="node">
<title>\\App\\Http\\Controllers\\Controller</title>
<polygon fill="none" stroke="#000000" points="611.2059,-2190 527.2059,-2190 527.2059,-2154 611.2059,-2154 611.2059,-2190"/>
<text text-anchor="middle" x="569.2059" y="-2169.2" font-family="Courier,monospace" font-size="11.00" fill="#000000">Controller</text>
</g>
<!-- \\App\\Http\\Controllers\\Auth\\VerificationController&#45;&gt;\\App\\Http\\Controllers\\Controller -->
<g id="edge10" class="edge">
<title>\\App\\Http\\Controllers\\Auth\\VerificationController&#45;&gt;\\App\\Http\\Controllers\\Controller</title>
<path fill="none" stroke="#000000" d="M921.3069,-2315.9849C911.575,-2313.1757 901.7656,-2310.1521 892.5329,-2307 792.6026,-2272.8836 679.5301,-2222.9623 617.0857,-2194.3567"/>
<polygon fill="none" stroke="#000000" points="618.4259,-2191.1207 607.8779,-2190.1249 615.5026,-2197.4811 618.4259,-2191.1207"/>
</g>
<!-- \\App\\Http\\Controllers\\Auth\\ResetPasswordController -->
<g id="node9" class="node">
<title>\\App\\Http\\Controllers\\Auth\\ResetPasswordController</title>
<polygon fill="none" stroke="#000000" points="1079.0329,-2298 907.0329,-2298 907.0329,-2262 1079.0329,-2262 1079.0329,-2298"/>
<text text-anchor="middle" x="993.0329" y="-2277.2" font-family="Courier,monospace" font-size="11.00" fill="#000000">ResetPasswordController</text>
</g>
<!-- \\App\\Http\\Controllers\\Auth\\ResetPasswordController&#45;&gt;\\App\\Http\\Controllers\\Controller -->
<g id="edge11" class="edge">
<title>\\App\\Http\\Controllers\\Auth\\ResetPasswordController&#45;&gt;\\App\\Http\\Controllers\\Controller</title>
<path fill="none" stroke="#000000" d="M922.0938,-2261.9232C837.0708,-2240.2576 696.6379,-2204.4724 621.1099,-2185.2262"/>
<polygon fill="none" stroke="#000000" points="621.8948,-2181.8145 611.3402,-2182.7367 620.1662,-2188.5977 621.8948,-2181.8145"/>
</g>
<!-- \\App\\Http\\Controllers\\Auth\\RegisterController -->
<g id="node10" class="node">
<title>\\App\\Http\\Controllers\\Auth\\RegisterController</title>
<polygon fill="none" stroke="#000000" points="1062.0329,-2244 924.0329,-2244 924.0329,-2208 1062.0329,-2208 1062.0329,-2244"/>
<text text-anchor="middle" x="993.0329" y="-2223.2" font-family="Courier,monospace" font-size="11.00" fill="#000000">RegisterController</text>
</g>
<!-- \\App\\Http\\Controllers\\Auth\\RegisterController&#45;&gt;\\App\\Http\\Controllers\\Controller -->
<g id="edge12" class="edge">
<title>\\App\\Http\\Controllers\\Auth\\RegisterController&#45;&gt;\\App\\Http\\Controllers\\Controller</title>
<path fill="none" stroke="#000000" d="M923.9945,-2217.2038C839.4246,-2206.4287 698.0295,-2188.4135 621.7761,-2178.698"/>
<polygon fill="none" stroke="#000000" points="621.8236,-2175.1758 611.4614,-2177.3838 620.9388,-2182.1197 621.8236,-2175.1758"/>
</g>
<!-- \\App\\Http\\Controllers\\Auth\\ConfirmPasswordController -->
<g id="node11" class="node">
<title>\\App\\Http\\Controllers\\Auth\\ConfirmPasswordController</title>
<polygon fill="none" stroke="#000000" points="1085.5329,-2190 900.5329,-2190 900.5329,-2154 1085.5329,-2154 1085.5329,-2190"/>
<text text-anchor="middle" x="993.0329" y="-2169.2" font-family="Courier,monospace" font-size="11.00" fill="#000000">ConfirmPasswordController</text>
</g>
<!-- \\App\\Http\\Controllers\\Auth\\ConfirmPasswordController&#45;&gt;\\App\\Http\\Controllers\\Controller -->
<g id="edge13" class="edge">
<title>\\App\\Http\\Controllers\\Auth\\ConfirmPasswordController&#45;&gt;\\App\\Http\\Controllers\\Controller</title>
<path fill="none" stroke="#000000" d="M900.2842,-2172C814.7777,-2172 690.92,-2172 621.4734,-2172"/>
<polygon fill="none" stroke="#000000" points="621.221,-2168.5001 611.221,-2172 621.221,-2175.5001 621.221,-2168.5001"/>
</g>
<!-- \\App\\Http\\Controllers\\Auth\\ForgotPasswordController -->
<g id="node12" class="node">
<title>\\App\\Http\\Controllers\\Auth\\ForgotPasswordController</title>
<polygon fill="none" stroke="#000000" points="1082.5329,-2136 903.5329,-2136 903.5329,-2100 1082.5329,-2100 1082.5329,-2136"/>
<text text-anchor="middle" x="993.0329" y="-2115.2" font-family="Courier,monospace" font-size="11.00" fill="#000000">ForgotPasswordController</text>
</g>
<!-- \\App\\Http\\Controllers\\Auth\\ForgotPasswordController&#45;&gt;\\App\\Http\\Controllers\\Controller -->
<g id="edge14" class="edge">
<title>\\App\\Http\\Controllers\\Auth\\ForgotPasswordController&#45;&gt;\\App\\Http\\Controllers\\Controller</title>
<path fill="none" stroke="#000000" d="M903.4091,-2129.419C817.7395,-2140.3342 691.5324,-2156.4143 621.2742,-2165.3659"/>
<polygon fill="none" stroke="#000000" points="620.8031,-2161.8976 611.3257,-2166.6335 621.6879,-2168.8415 620.8031,-2161.8976"/>
</g>
<!-- \\App\\Http\\Controllers\\Auth\\LoginController -->
<g id="node13" class="node">
<title>\\App\\Http\\Controllers\\Auth\\LoginController</title>
<polygon fill="none" stroke="#000000" points="1052.0329,-2082 934.0329,-2082 934.0329,-2046 1052.0329,-2046 1052.0329,-2082"/>
<text text-anchor="middle" x="993.0329" y="-2061.2" font-family="Courier,monospace" font-size="11.00" fill="#000000">LoginController</text>
</g>
<!-- \\App\\Http\\Controllers\\Auth\\LoginController&#45;&gt;\\App\\Http\\Controllers\\Controller -->
<g id="edge15" class="edge">
<title>\\App\\Http\\Controllers\\Auth\\LoginController&#45;&gt;\\App\\Http\\Controllers\\Controller</title>
<path fill="none" stroke="#000000" d="M933.6553,-2079.1307C850.3072,-2100.3695 699.9887,-2138.6738 620.9646,-2158.8108"/>
<polygon fill="none" stroke="#000000" points="620.0531,-2155.4311 611.2271,-2161.2921 621.7817,-2162.2144 620.0531,-2155.4311"/>
</g>
<!-- \\Illuminate\\Routing\\Controller -->
<g id="node37" class="node">
<title>\\Illuminate\\Routing\\Controller</title>
<ellipse fill="none" stroke="#000000" cx="118.9394" cy="-2172" rx="118.8789" ry="18"/>
<text text-anchor="middle" x="118.9394" y="-2168.3" font-family="Times,serif" font-size="14.00" fill="#c0c0c0">\Illuminate\Routing\Controller</text>
</g>
<!-- \\App\\Http\\Controllers\\Controller&#45;&gt;\\Illuminate\\Routing\\Controller -->
<g id="edge8" class="edge">
<title>\\App\\Http\\Controllers\\Controller&#45;&gt;\\Illuminate\\Routing\\Controller</title>
<path fill="none" stroke="#000000" d="M526.8459,-2172C463.6897,-2172 342.2026,-2172 248.1688,-2172"/>
<polygon fill="none" stroke="#000000" points="248.0034,-2168.5001 238.0033,-2172 248.0033,-2175.5001 248.0034,-2168.5001"/>
</g>
<!-- \\App\\Http\\Controllers\\HomeController -->
<g id="node15" class="node">
<title>\\App\\Http\\Controllers\\HomeController</title>
<polygon fill="none" stroke="#000000" points="1048.5329,-2028 937.5329,-2028 937.5329,-1992 1048.5329,-1992 1048.5329,-2028"/>
<text text-anchor="middle" x="993.0329" y="-2007.2" font-family="Courier,monospace" font-size="11.00" fill="#000000">HomeController</text>
</g>
<!-- \\App\\Http\\Controllers\\HomeController&#45;&gt;\\App\\Http\\Controllers\\Controller -->
<g id="edge9" class="edge">
<title>\\App\\Http\\Controllers\\HomeController&#45;&gt;\\App\\Http\\Controllers\\Controller</title>
<path fill="none" stroke="#000000" d="M937.5329,-2021.4829C922.7679,-2025.0175 906.9266,-2029.2475 892.5329,-2034 790.8272,-2067.5812 676.6223,-2119.9717 614.8493,-2149.6028"/>
<polygon fill="none" stroke="#000000" points="613.2502,-2146.4881 605.7593,-2153.9805 616.2875,-2152.7948 613.2502,-2146.4881"/>
</g>
<!-- \\App\\Http\\Kernel -->
<g id="node16" class="node">
<title>\\App\\Http\\Kernel</title>
<polygon fill="none" stroke="#000000" points="1021.5329,-1570 964.5329,-1570 964.5329,-1534 1021.5329,-1534 1021.5329,-1570"/>
<text text-anchor="middle" x="993.0329" y="-1549.2" font-family="Courier,monospace" font-size="11.00" fill="#000000">Kernel</text>
</g>
<!-- \\Illuminate\\Foundation\\Http\\Kernel -->
<g id="node38" class="node">
<title>\\Illuminate\\Foundation\\Http\\Kernel</title>
<ellipse fill="none" stroke="#000000" cx="569.2059" cy="-396" rx="136.4758" ry="18"/>
<text text-anchor="middle" x="569.2059" y="-392.3" font-family="Times,serif" font-size="14.00" fill="#c0c0c0">\Illuminate\Foundation\Http\Kernel</text>
</g>
<!-- \\App\\Http\\Kernel&#45;&gt;\\Illuminate\\Foundation\\Http\\Kernel -->
<g id="edge16" class="edge">
<title>\\App\\Http\\Kernel&#45;&gt;\\Illuminate\\Foundation\\Http\\Kernel</title>
<path fill="none" stroke="#000000" d="M964.2515,-1543.7918C940.6161,-1535.4061 908.524,-1519.8767 892.5329,-1494 767.1946,-1291.1784 993.3702,-595.2641 828.5329,-423 784.3972,-376.8758 710.1855,-373.3775 652.431,-379.5378"/>
<polygon fill="none" stroke="#000000" points="651.7363,-376.0955 642.2161,-380.7448 652.5577,-383.0471 651.7363,-376.0955"/>
</g>
<!-- \\App\\Console\\Kernel -->
<g id="node17" class="node">
<title>\\App\\Console\\Kernel</title>
<polygon fill="none" stroke="#000000" points="1021.5329,-1328 964.5329,-1328 964.5329,-1292 1021.5329,-1292 1021.5329,-1328"/>
<text text-anchor="middle" x="993.0329" y="-1307.2" font-family="Courier,monospace" font-size="11.00" fill="#000000">Kernel</text>
</g>
<!-- \\Illuminate\\Foundation\\Console\\Kernel -->
<g id="node40" class="node">
<title>\\Illuminate\\Foundation\\Console\\Kernel</title>
<ellipse fill="none" stroke="#000000" cx="569.2059" cy="-288" rx="149.4735" ry="18"/>
<text text-anchor="middle" x="569.2059" y="-284.3" font-family="Times,serif" font-size="14.00" fill="#c0c0c0">\Illuminate\Foundation\Console\Kernel</text>
</g>
<!-- \\App\\Console\\Kernel&#45;&gt;\\Illuminate\\Foundation\\Console\\Kernel -->
<g id="edge18" class="edge">
<title>\\App\\Console\\Kernel&#45;&gt;\\Illuminate\\Foundation\\Console\\Kernel</title>
<path fill="none" stroke="#000000" d="M964.3723,-1309.8101C941.144,-1307.9798 909.568,-1301.3496 892.5329,-1280 758.4901,-1112.0082 977.6238,-469.7921 828.5329,-315 784.9873,-269.7892 712.5234,-265.6366 655.2487,-271.3266"/>
<polygon fill="none" stroke="#000000" points="654.6593,-267.8704 645.106,-272.4511 655.4308,-274.8277 654.6593,-267.8704"/>
</g>
<!-- \\App\\Providers\\BroadcastServiceProvider -->
<g id="node18" class="node">
<title>\\App\\Providers\\BroadcastServiceProvider</title>
<polygon fill="none" stroke="#000000" points="1082.5329,-1248 903.5329,-1248 903.5329,-1212 1082.5329,-1212 1082.5329,-1248"/>
<text text-anchor="middle" x="993.0329" y="-1227.2" font-family="Courier,monospace" font-size="11.00" fill="#000000">BroadcastServiceProvider</text>
</g>
<!-- \\Illuminate\\Support\\ServiceProvider -->
<g id="node41" class="node">
<title>\\Illuminate\\Support\\ServiceProvider</title>
<ellipse fill="none" stroke="#000000" cx="569.2059" cy="-234" rx="139.1754" ry="18"/>
<text text-anchor="middle" x="569.2059" y="-230.3" font-family="Times,serif" font-size="14.00" fill="#c0c0c0">\Illuminate\Support\ServiceProvider</text>
</g>
<!-- \\App\\Providers\\BroadcastServiceProvider&#45;&gt;\\Illuminate\\Support\\ServiceProvider -->
<g id="edge19" class="edge">
<title>\\App\\Providers\\BroadcastServiceProvider&#45;&gt;\\Illuminate\\Support\\ServiceProvider</title>
<path fill="none" stroke="#000000" d="M903.5214,-1213.1971C899.4575,-1210.2834 895.7454,-1206.9076 892.5329,-1203 759.2871,-1040.9251 974.2078,-412.0017 828.5329,-261 784.432,-215.2865 710.7606,-211.5757 653.1871,-217.5557"/>
<polygon fill="none" stroke="#000000" points="652.5338,-214.1077 643.0007,-218.7306 653.3359,-221.0616 652.5338,-214.1077"/>
</g>
<!-- \\App\\Providers\\AuthServiceProvider -->
<g id="node19" class="node">
<title>\\App\\Providers\\AuthServiceProvider</title>
<polygon fill="none" stroke="#000000" points="1065.5329,-1140 920.5329,-1140 920.5329,-1104 1065.5329,-1104 1065.5329,-1140"/>
<text text-anchor="middle" x="993.0329" y="-1119.2" font-family="Courier,monospace" font-size="11.00" fill="#000000">AuthServiceProvider</text>
</g>
<!-- \\Illuminate\\Foundation\\Support\\Providers\\AuthServiceProvider -->
<g id="node42" class="node">
<title>\\Illuminate\\Foundation\\Support\\Providers\\AuthServiceProvider</title>
<ellipse fill="none" stroke="#000000" cx="569.2059" cy="-180" rx="235.0585" ry="18"/>
<text text-anchor="middle" x="569.2059" y="-176.3" font-family="Times,serif" font-size="14.00" fill="#c0c0c0">\Illuminate\Foundation\Support\Providers\AuthServiceProvider</text>
</g>
<!-- \\App\\Providers\\AuthServiceProvider&#45;&gt;\\Illuminate\\Foundation\\Support\\Providers\\AuthServiceProvider -->
<g id="edge20" class="edge">
<title>\\App\\Providers\\AuthServiceProvider&#45;&gt;\\Illuminate\\Foundation\\Support\\Providers\\AuthServiceProvider</title>
<path fill="none" stroke="#000000" d="M920.4052,-1114.1666C909.7006,-1109.9662 899.8367,-1103.8469 892.5329,-1095 766.5753,-942.4306 966.189,-349.1039 828.5329,-207 787.7652,-164.9151 721.9228,-158.4865 666.7862,-162.4158"/>
<polygon fill="none" stroke="#000000" points="666.2983,-158.9442 656.624,-163.2637 666.8805,-165.92 666.2983,-158.9442"/>
</g>
<!-- \\App\\Providers\\AppServiceProvider -->
<g id="node20" class="node">
<title>\\App\\Providers\\AppServiceProvider</title>
<polygon fill="none" stroke="#000000" points="1062.0329,-1194 924.0329,-1194 924.0329,-1158 1062.0329,-1158 1062.0329,-1194"/>
<text text-anchor="middle" x="993.0329" y="-1173.2" font-family="Courier,monospace" font-size="11.00" fill="#000000">AppServiceProvider</text>
</g>
<!-- \\App\\Providers\\AppServiceProvider&#45;&gt;\\Illuminate\\Support\\ServiceProvider -->
<g id="edge21" class="edge">
<title>\\App\\Providers\\AppServiceProvider&#45;&gt;\\Illuminate\\Support\\ServiceProvider</title>
<path fill="none" stroke="#000000" d="M923.9736,-1169.4869C911.9064,-1165.2822 900.6418,-1158.8222 892.5329,-1149 766.5753,-996.4306 966.189,-403.1039 828.5329,-261 784.4124,-215.454 710.9233,-211.6703 653.4199,-217.5813"/>
<polygon fill="none" stroke="#000000" points="652.7828,-214.1312 643.2449,-218.7439 653.5776,-221.086 652.7828,-214.1312"/>
</g>
<!-- \\App\\Providers\\EventServiceProvider -->
<g id="node21" class="node">
<title>\\App\\Providers\\EventServiceProvider</title>
<polygon fill="none" stroke="#000000" points="1069.0329,-1086 917.0329,-1086 917.0329,-1050 1069.0329,-1050 1069.0329,-1086"/>
<text text-anchor="middle" x="993.0329" y="-1065.2" font-family="Courier,monospace" font-size="11.00" fill="#000000">EventServiceProvider</text>
</g>
<!-- \\Illuminate\\Foundation\\Support\\Providers\\EventServiceProvider -->
<g id="node43" class="node">
<title>\\Illuminate\\Foundation\\Support\\Providers\\EventServiceProvider</title>
<ellipse fill="none" stroke="#000000" cx="569.2059" cy="-126" rx="237.7578" ry="18"/>
<text text-anchor="middle" x="569.2059" y="-122.3" font-family="Times,serif" font-size="14.00" fill="#c0c0c0">\Illuminate\Foundation\Support\Providers\EventServiceProvider</text>
</g>
<!-- \\App\\Providers\\EventServiceProvider&#45;&gt;\\Illuminate\\Foundation\\Support\\Providers\\EventServiceProvider -->
<g id="edge22" class="edge">
<title>\\App\\Providers\\EventServiceProvider&#45;&gt;\\Illuminate\\Foundation\\Support\\Providers\\EventServiceProvider</title>
<path fill="none" stroke="#000000" d="M916.8416,-1062.5458C907.5696,-1058.8699 899.0785,-1053.563 892.5329,-1046 762.3333,-895.5655 966.9314,-295.9277 828.5329,-153 787.7736,-110.9069 721.9311,-104.4784 666.7924,-108.4098"/>
<polygon fill="none" stroke="#000000" points="666.3039,-104.9383 656.6298,-109.2582 666.8863,-111.914 666.3039,-104.9383"/>
</g>
<!-- \\App\\Exceptions\\Api\\ResourceNotFoundException -->
<g id="node22" class="node">
<title>\\App\\Exceptions\\Api\\ResourceNotFoundException</title>
<polygon fill="none" stroke="#000000" points="1085.5329,-1462 900.5329,-1462 900.5329,-1426 1085.5329,-1426 1085.5329,-1462"/>
<text text-anchor="middle" x="993.0329" y="-1441.2" font-family="Courier,monospace" font-size="11.00" fill="#000000">ResourceNotFoundException</text>
</g>
<!-- \\App\\Exceptions\\Api\\BaseException -->
<g id="node23" class="node">
<title>\\App\\Exceptions\\Api\\BaseException</title>
<polygon fill="none" stroke="#000000" points="621.2059,-1462 517.2059,-1462 517.2059,-1426 621.2059,-1426 621.2059,-1462"/>
<text text-anchor="middle" x="569.2059" y="-1441.2" font-family="Courier,monospace" font-size="11.00" fill="#000000">BaseException</text>
</g>
<!-- \\App\\Exceptions\\Api\\ResourceNotFoundException&#45;&gt;\\App\\Exceptions\\Api\\BaseException -->
<g id="edge24" class="edge">
<title>\\App\\Exceptions\\Api\\ResourceNotFoundException&#45;&gt;\\App\\Exceptions\\Api\\BaseException</title>
<path fill="none" stroke="#000000" d="M900.2842,-1444C818.7817,-1444 702.4357,-1444 631.5778,-1444"/>
<polygon fill="none" stroke="#000000" points="631.463,-1440.5001 621.4629,-1444 631.4629,-1447.5001 631.463,-1440.5001"/>
</g>
<!-- \\Exception -->
<g id="node45" class="node">
<title>\\Exception</title>
<ellipse fill="none" stroke="#000000" cx="118.9394" cy="-1444" rx="48.9926" ry="18"/>
<text text-anchor="middle" x="118.9394" y="-1440.3" font-family="Times,serif" font-size="14.00" fill="#c0c0c0">\Exception</text>
</g>
<!-- \\App\\Exceptions\\Api\\BaseException&#45;&gt;\\Exception -->
<g id="edge25" class="edge">
<title>\\App\\Exceptions\\Api\\BaseException&#45;&gt;\\Exception</title>
<path fill="none" stroke="#000000" d="M517.1147,-1444C432.7206,-1444 266.6345,-1444 177.9807,-1444"/>
<polygon fill="none" stroke="#000000" points="177.8244,-1440.5001 167.8243,-1444 177.8243,-1447.5001 177.8244,-1440.5001"/>
</g>
<!-- \\App\\Exceptions\\Handler -->
<g id="node24" class="node">
<title>\\App\\Exceptions\\Handler</title>
<polygon fill="none" stroke="#000000" points="1025.0329,-1408 961.0329,-1408 961.0329,-1372 1025.0329,-1372 1025.0329,-1408"/>
<text text-anchor="middle" x="993.0329" y="-1387.2" font-family="Courier,monospace" font-size="11.00" fill="#000000">Handler</text>
</g>
<!-- \\Illuminate\\Foundation\\Exceptions\\Handler -->
<g id="node44" class="node">
<title>\\Illuminate\\Foundation\\Exceptions\\Handler</title>
<ellipse fill="none" stroke="#000000" cx="569.2059" cy="-342" rx="164.3708" ry="18"/>
<text text-anchor="middle" x="569.2059" y="-338.3" font-family="Times,serif" font-size="14.00" fill="#c0c0c0">\Illuminate\Foundation\Exceptions\Handler</text>
</g>
<!-- \\App\\Exceptions\\Handler&#45;&gt;\\Illuminate\\Foundation\\Exceptions\\Handler -->
<g id="edge23" class="edge">
<title>\\App\\Exceptions\\Handler&#45;&gt;\\Illuminate\\Foundation\\Exceptions\\Handler</title>
<path fill="none" stroke="#000000" d="M960.5776,-1389.4831C937.8017,-1387.2432 908.642,-1380.2249 892.5329,-1360 755.0437,-1187.3824 981.4856,-528.0772 828.5329,-369 785.6184,-324.3672 714.5258,-319.7226 657.6199,-325.0757"/>
<polygon fill="none" stroke="#000000" points="657.1092,-321.61 647.5324,-326.1415 657.8448,-328.5713 657.1092,-321.61"/>
</g>
<!-- \\App\\Models\\Feedback -->
<g id="node25" class="node">
<title>\\App\\Models\\Feedback</title>
<polygon fill="none" stroke="#000000" points="1028.5329,-906 957.5329,-906 957.5329,-870 1028.5329,-870 1028.5329,-906"/>
<text text-anchor="middle" x="993.0329" y="-885.2" font-family="Courier,monospace" font-size="11.00" fill="#000000">Feedback</text>
</g>
<!-- \\Illuminate\\Database\\Eloquent\\Model -->
<g id="node39" class="node">
<title>\\Illuminate\\Database\\Eloquent\\Model</title>
<ellipse fill="none" stroke="#000000" cx="569.2059" cy="-72" rx="144.0747" ry="18"/>
<text text-anchor="middle" x="569.2059" y="-68.3" font-family="Times,serif" font-size="14.00" fill="#c0c0c0">\Illuminate\Database\Eloquent\Model</text>
</g>
<!-- \\App\\Models\\Feedback&#45;&gt;\\Illuminate\\Database\\Eloquent\\Model -->
<g id="edge27" class="edge">
<title>\\App\\Models\\Feedback&#45;&gt;\\Illuminate\\Database\\Eloquent\\Model</title>
<path fill="none" stroke="#000000" d="M957.0571,-890.0404C935.0979,-889.1888 908.3013,-884.0051 892.5329,-866 779.8478,-737.3312 948.2286,-221.1741 828.5329,-99 784.604,-54.1615 712.1721,-49.9779 655.0072,-55.5612"/>
<polygon fill="none" stroke="#000000" points="654.4462,-52.1015 644.885,-56.6658 655.2057,-59.0602 654.4462,-52.1015"/>
</g>
<!-- \\App\\User -->
<g id="node26" class="node">
<title>\\App\\User</title>
<polygon fill="none" stroke="#000000" points="1020.0329,-798 966.0329,-798 966.0329,-762 1020.0329,-762 1020.0329,-798"/>
<text text-anchor="middle" x="993.0329" y="-777.2" font-family="Courier,monospace" font-size="11.00" fill="#000000">User</text>
</g>
<!-- \\Illuminate\\Foundation\\Auth\\User -->
<g id="node30" class="node">
<title>\\Illuminate\\Foundation\\Auth\\User</title>
<ellipse fill="none" stroke="#000000" cx="569.2059" cy="-18" rx="131.077" ry="18"/>
<text text-anchor="middle" x="569.2059" y="-14.3" font-family="Times,serif" font-size="14.00" fill="#c0c0c0">\Illuminate\Foundation\Auth\User</text>
</g>
<!-- \\App\\User&#45;&gt;\\Illuminate\\Foundation\\Auth\\User -->
<g id="edge1" class="edge">
<title>\\App\\User&#45;&gt;\\Illuminate\\Foundation\\Auth\\User</title>
<path fill="none" stroke="#000000" d="M991.7634,-761.8889C984.1343,-658.5898 940.8711,-144.9641 828.5329,-45 783.567,-4.9871 715.3463,.7429 660.1613,-2.9907"/>
<polygon fill="none" stroke="#000000" points="659.7106,.4847 650.0172,-3.7919 660.2618,-6.4936 659.7106,.4847"/>
</g>
<!-- \\App\\Comment -->
<g id="node27" class="node">
<title>\\App\\Comment</title>
<polygon fill="none" stroke="#000000" points="1025.0329,-852 961.0329,-852 961.0329,-816 1025.0329,-816 1025.0329,-852"/>
<text text-anchor="middle" x="993.0329" y="-831.2" font-family="Courier,monospace" font-size="11.00" fill="#000000">Comment</text>
</g>
<!-- \\App\\Comment&#45;&gt;\\Illuminate\\Database\\Eloquent\\Model -->
<g id="edge17" class="edge">
<title>\\App\\Comment&#45;&gt;\\Illuminate\\Database\\Eloquent\\Model</title>
<path fill="none" stroke="#000000" d="M960.8175,-834.3866C938.1608,-832.794 909.0452,-826.6342 892.5329,-807 790.8541,-686.0972 939.4763,-211.4616 828.5329,-99 784.5995,-54.4654 712.5228,-50.1461 655.4932,-55.6007"/>
<polygon fill="none" stroke="#000000" points="654.9634,-52.1373 645.3929,-56.6823 655.7088,-59.0975 654.9634,-52.1373"/>
</g>
<!-- \\App\\Note -->
<g id="node28" class="node">
<title>\\App\\Note</title>
<polygon fill="none" stroke="#000000" points="1020.0329,-1032 966.0329,-1032 966.0329,-996 1020.0329,-996 1020.0329,-1032"/>
<text text-anchor="middle" x="993.0329" y="-1011.2" font-family="Courier,monospace" font-size="11.00" fill="#000000">Note</text>
</g>
<!-- \\App\\Note&#45;&gt;\\Illuminate\\Database\\Eloquent\\Model -->
<g id="edge26" class="edge">
<title>\\App\\Note&#45;&gt;\\Illuminate\\Database\\Eloquent\\Model</title>
<path fill="none" stroke="#000000" d="M965.8637,-1014.7568C942.5918,-1013.7971 910.131,-1008.3162 892.5329,-987 766.5753,-834.4306 966.189,-241.1039 828.5329,-99 784.7095,-53.7607 711.9117,-49.7232 654.5838,-55.4632"/>
<polygon fill="none" stroke="#000000" points="653.9845,-52.0083 644.4345,-56.5961 654.7611,-58.9651 653.9845,-52.0083"/>
</g>
<!-- \\App\\Ticket -->
<g id="node29" class="node">
<title>\\App\\Ticket</title>
<polygon fill="none" stroke="#000000" points="1021.5329,-978 964.5329,-978 964.5329,-942 1021.5329,-942 1021.5329,-978"/>
<text text-anchor="middle" x="993.0329" y="-957.2" font-family="Courier,monospace" font-size="11.00" fill="#000000">Ticket</text>
</g>
<!-- \\App\\Ticket&#45;&gt;\\Illuminate\\Database\\Eloquent\\Model -->
<g id="edge28" class="edge">
<title>\\App\\Ticket&#45;&gt;\\Illuminate\\Database\\Eloquent\\Model</title>
<path fill="none" stroke="#000000" d="M964.19,-962.208C941.1756,-962.2408 909.9951,-958.0829 892.5329,-938 769.841,-796.8954 958.9143,-233.0316 828.5329,-99 784.6894,-53.929 712.072,-49.8208 654.8161,-55.4917"/>
<polygon fill="none" stroke="#000000" points="654.2336,-52.0346 644.6786,-56.6121 655.0026,-58.9923 654.2336,-52.0346"/>
</g>
</g>
</svg>
